<svg xmlns="http://www.w3.org/2000/svg" width="49" height="22" fill="none" viewBox="0 0 49 22"><path fill="#fff" d="M47.6482 10.1609C48.0825 10.2267 48.3617 10.5229 48.4858 11.0493C48.4238 11.5099 48.1446 11.7731 47.6482 11.8389H3.53495L11.7248 20.5251C11.9729 20.9199 11.9729 21.3148 11.7248 21.7096C11.6007 21.7754 11.4145 21.8412 11.1664 21.907C10.9802 21.907 10.7941 21.8412 10.608 21.7096L1.11523 11.6415C1.05319 11.5757 0.991146 11.477 0.929102 11.3454C0.867057 11.148 0.867057 10.9177 0.929102 10.6545C0.929102 10.5887 0.991145 10.49 1.11523 10.3584L10.608 0.290309C10.9802 0.027091 11.3525 0.027091 11.7248 0.290309C11.9729 0.685136 11.9729 1.07996 11.7248 1.47478L3.53495 10.1609H47.6482Z"/></svg>