<svg width="1440" height="1024" viewBox="0 0 1440 1024" fill="none" xmlns="http://www.w3.org/2000/svg">
<rect y="-839" width="1440" height="2701" fill="#160C6E"/>
<path opacity="0.6" fill-rule="evenodd" clip-rule="evenodd" d="M720 1069C1027.62 1069 1277 819.623 1277 512C1277 204.377 1027.62 -45 720 -45C412.377 -45 163 204.377 163 512C163 819.623 412.377 1069 720 1069Z" fill="#3F21D0"/>
<path fill-rule="evenodd" clip-rule="evenodd" d="M719.606 857.351C910.555 857.351 1065.35 702.556 1065.35 511.607C1065.35 320.657 910.555 165.863 719.606 165.863C528.657 165.863 373.862 320.657 373.862 511.607C373.862 702.556 528.657 857.351 719.606 857.351Z" fill="url(#paint0_linear)"/>
<path fill-rule="evenodd" clip-rule="evenodd" d="M322.172 930.661C336.439 930.661 348.005 919.095 348.005 904.828C348.005 890.561 336.439 878.995 322.172 878.995C307.905 878.995 296.339 890.561 296.339 904.828C296.339 919.095 307.905 930.661 322.172 930.661Z" stroke="white" stroke-width="2"/>
<path fill-rule="evenodd" clip-rule="evenodd" d="M913.378 139.561C917.035 139.561 920 136.596 920 132.939C920 129.282 917.035 126.317 913.378 126.317C909.721 126.317 906.757 129.282 906.757 132.939C906.757 136.596 909.721 139.561 913.378 139.561Z" stroke="white" stroke-width="2"/>
<path fill-rule="evenodd" clip-rule="evenodd" d="M819.378 786.56C823.035 786.56 826 783.596 826 779.939C826 776.282 823.035 773.317 819.378 773.317C815.721 773.317 812.757 776.282 812.757 779.939C812.757 783.596 815.721 786.56 819.378 786.56Z" stroke="white" stroke-width="2"/>
<path fill-rule="evenodd" clip-rule="evenodd" d="M1286.17 914C1291.24 914 1295.34 909.893 1295.34 904.828C1295.34 899.762 1291.24 895.656 1286.17 895.656C1281.11 895.656 1277 899.762 1277 904.828C1277 909.893 1281.11 914 1286.17 914Z" stroke="white" stroke-width="2"/>
<path fill-rule="evenodd" clip-rule="evenodd" d="M929.172 898.995C934.238 898.995 938.344 894.888 938.344 889.823C938.344 884.757 934.238 880.651 929.172 880.651C924.106 880.651 920 884.757 920 889.823C920 894.888 924.106 898.995 929.172 898.995Z" stroke="white" stroke-width="2"/>
<path fill-rule="evenodd" clip-rule="evenodd" d="M1230.17 163.844C1235.24 163.844 1239.34 159.738 1239.34 154.672C1239.34 149.606 1235.24 145.5 1230.17 145.5C1225.11 145.5 1221 149.606 1221 154.672C1221 159.738 1225.11 163.844 1230.17 163.844Z" stroke="white" stroke-width="2"/>
<path fill-rule="evenodd" clip-rule="evenodd" d="M322.172 430.172C327.238 430.172 331.344 426.066 331.344 421C331.344 415.934 327.238 411.828 322.172 411.828C317.106 411.828 313 415.934 313 421C313 426.066 317.106 430.172 322.172 430.172Z" stroke="white" stroke-width="2"/>
<path fill-rule="evenodd" clip-rule="evenodd" d="M313 145.5C321.247 145.5 327.932 138.815 327.932 130.568C327.932 122.321 321.247 115.635 313 115.635C304.753 115.635 298.068 122.321 298.068 130.568C298.068 138.815 304.753 145.5 313 145.5Z" stroke="white" stroke-width="2"/>
<defs>
<linearGradient id="paint0_linear" x1="1583.97" y1="857.351" x2="749.891" y2="-181.933" gradientUnits="userSpaceOnUse">
<stop stop-color="#DF387C"/>
<stop offset="1" stop-color="#FF602C"/>
</linearGradient>
</defs>
</svg>
