<svg width="375" height="667" viewBox="0 0 375 667" fill="none" xmlns="http://www.w3.org/2000/svg">
<rect width="375" height="667" fill="white"/>
<path opacity="0.2" d="M138.643 461.551C159.661 461.551 176.699 444.513 176.699 423.495C176.699 402.478 159.661 385.44 138.643 385.44C117.626 385.44 100.587 402.478 100.587 423.495C100.587 444.513 117.626 461.551 138.643 461.551Z" fill="#38277A"/>
<path opacity="0.1" d="M200.687 638.166H76.5992L100.272 536.816L107.268 506.866L123.648 436.736H153.639L170.018 506.866L177.015 536.816L200.687 638.166Z" fill="#38277A"/>
<path opacity="0.2" d="M282.351 492.442C288.164 492.444 293.846 494.169 298.679 497.399C303.511 500.63 307.278 505.22 309.501 510.591C311.725 515.962 312.306 521.872 311.171 527.573C310.036 533.274 307.236 538.51 303.125 542.62C299.015 546.73 293.777 549.529 288.076 550.662C282.375 551.796 276.465 551.213 271.095 548.989C265.725 546.764 261.135 542.997 257.905 538.163C254.676 533.33 252.952 527.647 252.952 521.834C252.961 514.041 256.062 506.569 261.573 501.059C267.085 495.548 274.557 492.449 282.351 492.442V492.442ZM282.351 465.557C271.221 465.557 260.34 468.858 251.085 475.042C241.83 481.225 234.617 490.015 230.358 500.298C226.098 510.581 224.984 521.897 227.155 532.814C229.327 543.73 234.687 553.758 242.557 561.629C250.428 569.499 260.455 574.859 271.372 577.03C282.289 579.202 293.604 578.087 303.888 573.828C314.171 569.568 322.96 562.355 329.144 553.1C335.328 543.846 338.628 532.965 338.628 521.834C338.627 506.909 332.697 492.596 322.143 482.042C311.59 471.489 297.276 465.559 282.351 465.557V465.557Z" fill="#6548DA"/>
<circle cx="187.14" cy="114.937" r="353.063" fill="url(#paint0_linear)"/>
<g opacity="0.58">
<path opacity="0.2" d="M-20.0726 463.5L38.2614 521.834" stroke="#6548DA" stroke-width="10" stroke-miterlimit="10"/>
<path opacity="0.2" d="M343.992 617.78L393.212 667" stroke="#6548DA" stroke-width="10" stroke-miterlimit="10"/>
<g opacity="0.5">
<path d="M375.528 286.869H375.535C382.555 286.869 388.245 281.178 388.245 274.159V151.354C388.245 144.335 382.555 138.644 375.535 138.644H375.528C368.509 138.644 362.818 144.335 362.818 151.354V274.159C362.818 281.178 368.509 286.869 375.528 286.869Z" fill="#DCE2E5"/>
<path d="M339.059 248.43C334.014 248.43 329.924 252.519 329.924 257.564C329.924 262.608 334.014 266.698 339.059 266.698H374.083C379.128 266.698 383.217 262.608 383.217 257.564C383.217 252.519 379.128 248.43 374.083 248.43H339.059Z" fill="#DCE2E5"/>
<path d="M353.126 222.062C348.082 222.062 343.992 226.152 343.992 231.196C343.992 236.241 348.082 240.33 353.126 240.33H377.457C382.502 240.33 386.592 236.241 386.592 231.196C386.592 226.152 382.502 222.062 377.457 222.062H353.126Z" fill="#DCE2E5"/>
<path d="M375.528 85.9494C380.724 85.948 385.803 87.4874 390.123 90.3728C394.444 93.2583 397.811 97.3601 399.8 102.16C401.79 106.959 402.311 112.241 401.298 117.336C400.285 122.432 397.784 127.113 394.111 130.787C390.438 134.461 385.757 136.964 380.662 137.978C375.566 138.992 370.285 138.472 365.485 136.484C360.685 134.496 356.582 131.13 353.696 126.81C350.809 122.49 349.268 117.411 349.268 112.216C349.275 105.253 352.044 98.5772 356.967 93.6529C361.89 88.7287 368.565 85.9583 375.528 85.9494V85.9494ZM375.528 64.4413C366.079 64.4413 356.843 67.2432 348.986 72.4928C341.13 77.7423 335.006 85.2038 331.39 93.9335C327.774 102.663 326.828 112.269 328.671 121.537C330.515 130.804 335.065 139.317 341.746 145.998C348.428 152.68 356.94 157.23 366.208 159.073C375.475 160.916 385.081 159.97 393.811 156.354C402.541 152.738 410.002 146.615 415.252 138.758C420.501 130.902 423.303 121.665 423.303 112.216C423.303 99.5454 418.27 87.3937 409.31 78.4342C400.351 69.4747 388.199 64.4413 375.528 64.4413Z" fill="#DCE2E5"/>
<path d="M195.085 95.5401C205.571 95.5401 214.072 87.039 214.072 76.5524C214.072 66.0659 205.571 57.5648 195.085 57.5648C184.598 57.5648 176.097 66.0659 176.097 76.5524C176.097 87.039 184.598 95.5401 195.085 95.5401Z" stroke="#E9EEF2" stroke-width="10" stroke-miterlimit="10"/>
<path d="M208.07 90.4185L238.941 121.5" stroke="#E9EEF2" stroke-width="10" stroke-miterlimit="10"/>
<path d="M234.7 118.863L243.182 110.757" stroke="#E9EEF2" stroke-width="10" stroke-miterlimit="10"/>
<path d="M226.352 109.231L233.53 102.416" stroke="#E9EEF2" stroke-width="10" stroke-miterlimit="10"/>
<path d="M294.36 328.166L331.699 365.5" stroke="white" stroke-width="10" stroke-miterlimit="10"/>
<path d="M-20.0793 138.439L38.2614 196.773" stroke="white" stroke-width="10" stroke-miterlimit="10"/>
<path d="M-10.0793 351.531L10 371.608" stroke="white" stroke-width="10" stroke-miterlimit="10"/>
<path d="M274.06 147.325L217.4 203.985" stroke="white" stroke-width="10" stroke-miterlimit="10"/>
<path d="M44.0764 31.333L62.7456 50" stroke="white" stroke-width="10" stroke-miterlimit="10"/>
<path d="M289.224 13.2665C296.474 13.2665 302.351 7.3893 302.351 0.139433C302.351 -7.11043 296.474 -12.9876 289.224 -12.9876C281.974 -12.9876 276.097 -7.11043 276.097 0.139433C276.097 7.3893 281.974 13.2665 289.224 13.2665Z" stroke="#E9EEF2" stroke-width="10" stroke-miterlimit="10"/>
</g>
</g>
<defs>
<linearGradient id="paint0_linear" x1="187.14" y1="-215" x2="187.14" y2="494" gradientUnits="userSpaceOnUse">
<stop stop-color="#301CC7"/>
<stop offset="1" stop-color="#5A45E3"/>
</linearGradient>
</defs>
</svg>
