<svg width="64" height="98" viewBox="0 0 64 98" fill="none" xmlns="http://www.w3.org/2000/svg">
<path d="M51.4734 0.19751V73.298H0.389648V18.7109L18.9064 0.19751H51.4734Z" fill="white"/>
<path d="M18.9064 0.19751V18.7109H0.389648L18.9064 0.19751Z" fill="#2A199D"/>
<path d="M25.9313 42.0261C29.4783 42.0261 32.3508 39.152 32.3508 35.6067C32.3508 32.0614 29.4783 29.1873 25.9313 29.1873C22.3844 29.1873 19.5119 32.0614 19.5119 35.6067C19.5119 39.152 22.3844 42.0261 25.9313 42.0261Z" fill="#2A199D"/>
<path d="M34.4147 54.5806H17.4483L23.8812 35.0967H27.9819L34.4147 54.5806Z" fill="#2A199D"/>
<path d="M1.386 84.612H2.38V95H1.386V84.612ZM8.15577 95.07C7.44643 95.07 6.8071 94.9113 6.23777 94.594C5.66843 94.2673 5.22043 93.8193 4.89377 93.25C4.5671 92.6807 4.40377 92.0367 4.40377 91.318C4.40377 90.5993 4.5671 89.9553 4.89377 89.386C5.22043 88.8167 5.66843 88.3733 6.23777 88.056C6.8071 87.7387 7.44643 87.58 8.15577 87.58C8.8651 87.58 9.50443 87.7387 10.0738 88.056C10.6431 88.3733 11.0864 88.8167 11.4038 89.386C11.7304 89.9553 11.8938 90.5993 11.8938 91.318C11.8938 92.0367 11.7304 92.6807 11.4038 93.25C11.0864 93.8193 10.6431 94.2673 10.0738 94.594C9.50443 94.9113 8.8651 95.07 8.15577 95.07ZM8.15577 94.188C8.67843 94.188 9.1451 94.0713 9.55577 93.838C9.97577 93.5953 10.3024 93.2547 10.5358 92.816C10.7691 92.3773 10.8858 91.878 10.8858 91.318C10.8858 90.758 10.7691 90.2587 10.5358 89.82C10.3024 89.3813 9.97577 89.0453 9.55577 88.812C9.1451 88.5693 8.67843 88.448 8.15577 88.448C7.6331 88.448 7.16177 88.5693 6.74177 88.812C6.3311 89.0453 6.00443 89.3813 5.76177 89.82C5.52843 90.2587 5.41177 90.758 5.41177 91.318C5.41177 91.878 5.52843 92.3773 5.76177 92.816C6.00443 93.2547 6.3311 93.5953 6.74177 93.838C7.16177 94.0713 7.6331 94.188 8.15577 94.188ZM16.9751 95.07C16.2471 95.07 15.5938 94.9113 15.0151 94.594C14.4458 94.2767 13.9978 93.8333 13.6711 93.264C13.3444 92.6853 13.1811 92.0367 13.1811 91.318C13.1811 90.5993 13.3444 89.9553 13.6711 89.386C13.9978 88.8167 14.4458 88.3733 15.0151 88.056C15.5938 87.7387 16.2471 87.58 16.9751 87.58C17.6098 87.58 18.1744 87.706 18.6691 87.958C19.1731 88.2007 19.5698 88.56 19.8591 89.036L19.1171 89.54C18.8744 89.176 18.5664 88.9053 18.1931 88.728C17.8198 88.5413 17.4138 88.448 16.9751 88.448C16.4431 88.448 15.9624 88.5693 15.5331 88.812C15.1131 89.0453 14.7818 89.3813 14.5391 89.82C14.3058 90.2587 14.1891 90.758 14.1891 91.318C14.1891 91.8873 14.3058 92.3913 14.5391 92.83C14.7818 93.2593 15.1131 93.5953 15.5331 93.838C15.9624 94.0713 16.4431 94.188 16.9751 94.188C17.4138 94.188 17.8198 94.0993 18.1931 93.922C18.5664 93.7447 18.8744 93.474 19.1171 93.11L19.8591 93.614C19.5698 94.09 19.1731 94.454 18.6691 94.706C18.1651 94.9487 17.6004 95.07 16.9751 95.07ZM24.4324 91.304L22.6964 92.9V95H21.7024V84.612H22.6964V91.654L27.0924 87.636H28.3244L25.1744 90.646L28.6184 95H27.4004L24.4324 91.304ZM30.3453 95.07C30.14 95.07 29.9627 94.9953 29.8133 94.846C29.6733 94.6967 29.6033 94.5147 29.6033 94.3C29.6033 94.0853 29.6733 93.908 29.8133 93.768C29.9627 93.6187 30.14 93.544 30.3453 93.544C30.5507 93.544 30.728 93.6187 30.8773 93.768C31.0267 93.908 31.1013 94.0853 31.1013 94.3C31.1013 94.5147 31.0267 94.6967 30.8773 94.846C30.728 94.9953 30.5507 95.07 30.3453 95.07ZM39.729 84.612V95H38.777V93.544C38.4784 94.0387 38.0817 94.4167 37.587 94.678C37.1017 94.9393 36.551 95.07 35.935 95.07C35.2444 95.07 34.619 94.9113 34.059 94.594C33.499 94.2767 33.0604 93.8333 32.743 93.264C32.4257 92.6947 32.267 92.046 32.267 91.318C32.267 90.59 32.4257 89.9413 32.743 89.372C33.0604 88.8027 33.499 88.364 34.059 88.056C34.619 87.7387 35.2444 87.58 35.935 87.58C36.5324 87.58 37.069 87.706 37.545 87.958C38.0304 88.2007 38.427 88.56 38.735 89.036V84.612H39.729ZM36.019 94.188C36.5324 94.188 36.9944 94.0713 37.405 93.838C37.825 93.5953 38.1517 93.2547 38.385 92.816C38.6277 92.3773 38.749 91.878 38.749 91.318C38.749 90.758 38.6277 90.2587 38.385 89.82C38.1517 89.3813 37.825 89.0453 37.405 88.812C36.9944 88.5693 36.5324 88.448 36.019 88.448C35.4964 88.448 35.025 88.5693 34.605 88.812C34.1944 89.0453 33.8677 89.3813 33.625 89.82C33.3917 90.2587 33.275 90.758 33.275 91.318C33.275 91.878 33.3917 92.3773 33.625 92.816C33.8677 93.2547 34.1944 93.5953 34.605 93.838C35.025 94.0713 35.4964 94.188 36.019 94.188ZM45.0733 87.58C46.0347 87.58 46.772 87.8227 47.2853 88.308C47.7987 88.784 48.0553 89.4933 48.0553 90.436V95H47.1033V93.852C46.8793 94.2347 46.548 94.5333 46.1093 94.748C45.68 94.9627 45.1667 95.07 44.5693 95.07C43.748 95.07 43.0947 94.874 42.6093 94.482C42.124 94.09 41.8813 93.572 41.8813 92.928C41.8813 92.3027 42.1053 91.7987 42.5533 91.416C43.0107 91.0333 43.734 90.842 44.7233 90.842H47.0613V90.394C47.0613 89.7593 46.884 89.2787 46.5293 88.952C46.1747 88.616 45.6567 88.448 44.9753 88.448C44.5087 88.448 44.0607 88.5273 43.6313 88.686C43.202 88.8353 42.8333 89.0453 42.5253 89.316L42.0773 88.574C42.4507 88.2567 42.8987 88.014 43.4213 87.846C43.944 87.6687 44.4947 87.58 45.0733 87.58ZM44.7233 94.286C45.2833 94.286 45.764 94.16 46.1653 93.908C46.5667 93.6467 46.8653 93.2733 47.0613 92.788V91.584H44.7513C43.4913 91.584 42.8613 92.0227 42.8613 92.9C42.8613 93.3293 43.0247 93.67 43.3513 93.922C43.678 94.1647 44.1353 94.286 44.7233 94.286ZM54.6331 94.552C54.4465 94.72 54.2131 94.8507 53.9331 94.944C53.6625 95.028 53.3778 95.07 53.0791 95.07C52.3885 95.07 51.8565 94.8833 51.4831 94.51C51.1098 94.1367 50.9231 93.6093 50.9231 92.928V88.476H49.6071V87.636H50.9231V86.026H51.9171V87.636H54.1571V88.476H51.9171V92.872C51.9171 93.3107 52.0245 93.6467 52.2391 93.88C52.4631 94.104 52.7805 94.216 53.1911 94.216C53.3965 94.216 53.5925 94.1833 53.7791 94.118C53.9751 94.0527 54.1431 93.9593 54.2831 93.838L54.6331 94.552ZM59.0186 87.58C59.98 87.58 60.7173 87.8227 61.2306 88.308C61.744 88.784 62.0006 89.4933 62.0006 90.436V95H61.0486V93.852C60.8246 94.2347 60.4933 94.5333 60.0546 94.748C59.6253 94.9627 59.112 95.07 58.5146 95.07C57.6933 95.07 57.04 94.874 56.5546 94.482C56.0693 94.09 55.8266 93.572 55.8266 92.928C55.8266 92.3027 56.0506 91.7987 56.4986 91.416C56.956 91.0333 57.6793 90.842 58.6686 90.842H61.0066V90.394C61.0066 89.7593 60.8293 89.2787 60.4746 88.952C60.12 88.616 59.602 88.448 58.9206 88.448C58.454 88.448 58.006 88.5273 57.5766 88.686C57.1473 88.8353 56.7786 89.0453 56.4706 89.316L56.0226 88.574C56.396 88.2567 56.844 88.014 57.3666 87.846C57.8893 87.6687 58.44 87.58 59.0186 87.58ZM58.6686 94.286C59.2286 94.286 59.7093 94.16 60.1106 93.908C60.512 93.6467 60.8106 93.2733 61.0066 92.788V91.584H58.6966C57.4366 91.584 56.8066 92.0227 56.8066 92.9C56.8066 93.3293 56.97 93.67 57.2966 93.922C57.6233 94.1647 58.0806 94.286 58.6686 94.286Z" fill="white"/>
</svg>
